<svg width="581" height="317" viewBox="0 0 581 317" fill="none" xmlns="http://www.w3.org/2000/svg">
<rect x="378.5" y="0.5" width="192" height="47" rx="3.5" fill="white" stroke="#E8E8E8"/>
<path d="M386.714 26.978C387.899 26.026 388.828 25.2467 389.5 24.64C390.172 24.024 390.737 23.3847 391.194 22.722C391.661 22.05 391.894 21.392 391.894 20.748C391.894 20.1413 391.745 19.6653 391.446 19.32C391.157 18.9653 390.685 18.788 390.032 18.788C389.397 18.788 388.903 18.9887 388.548 19.39C388.203 19.782 388.016 20.3093 387.988 20.972H386.756C386.793 19.9267 387.111 19.1193 387.708 18.55C388.305 17.9807 389.075 17.696 390.018 17.696C390.979 17.696 391.74 17.962 392.3 18.494C392.869 19.026 393.154 19.7587 393.154 20.692C393.154 21.4667 392.921 22.2227 392.454 22.96C391.997 23.688 391.474 24.332 390.886 24.892C390.298 25.4427 389.547 26.0867 388.632 26.824H393.448V27.888H386.714V26.978ZM394.921 22.834C394.921 21.2287 395.182 19.978 395.705 19.082C396.227 18.1767 397.142 17.724 398.449 17.724C399.746 17.724 400.656 18.1767 401.179 19.082C401.701 19.978 401.963 21.2287 401.963 22.834C401.963 24.4673 401.701 25.7367 401.179 26.642C400.656 27.5473 399.746 28 398.449 28C397.142 28 396.227 27.5473 395.705 26.642C395.182 25.7367 394.921 24.4673 394.921 22.834ZM400.703 22.834C400.703 22.022 400.647 21.336 400.535 20.776C400.432 20.2067 400.213 19.7493 399.877 19.404C399.55 19.0587 399.074 18.886 398.449 18.886C397.814 18.886 397.329 19.0587 396.993 19.404C396.666 19.7493 396.447 20.2067 396.335 20.776C396.232 21.336 396.181 22.022 396.181 22.834C396.181 23.674 396.232 24.3787 396.335 24.948C396.447 25.5173 396.666 25.9747 396.993 26.32C397.329 26.6653 397.814 26.838 398.449 26.838C399.074 26.838 399.55 26.6653 399.877 26.32C400.213 25.9747 400.432 25.5173 400.535 24.948C400.647 24.3787 400.703 23.674 400.703 22.834ZM403.558 26.978C404.743 26.026 405.672 25.2467 406.344 24.64C407.016 24.024 407.58 23.3847 408.038 22.722C408.504 22.05 408.738 21.392 408.738 20.748C408.738 20.1413 408.588 19.6653 408.29 19.32C408 18.9653 407.529 18.788 406.876 18.788C406.241 18.788 405.746 18.9887 405.392 19.39C405.046 19.782 404.86 20.3093 404.832 20.972H403.6C403.637 19.9267 403.954 19.1193 404.552 18.55C405.149 17.9807 405.919 17.696 406.862 17.696C407.823 17.696 408.584 17.962 409.144 18.494C409.713 19.026 409.998 19.7587 409.998 20.692C409.998 21.4667 409.764 22.2227 409.298 22.96C408.84 23.688 408.318 24.332 407.73 24.892C407.142 25.4427 406.39 26.0867 405.476 26.824H410.292V27.888H403.558V26.978ZM411.428 19.04V17.878H414.06V28H412.772V19.04H411.428ZM423.229 18.242C424.293 18.242 425.213 18.4427 425.987 18.844C426.771 19.236 427.369 19.8007 427.779 20.538C428.199 21.2753 428.409 22.1433 428.409 23.142C428.409 24.1407 428.199 25.0087 427.779 25.746C427.369 26.474 426.771 27.034 425.987 27.426C425.213 27.8087 424.293 28 423.229 28H420.191V18.242H423.229ZM423.229 26.95C424.489 26.95 425.451 26.6187 426.113 25.956C426.776 25.284 427.107 24.346 427.107 23.142C427.107 21.9287 426.771 20.9813 426.099 20.3C425.437 19.6187 424.48 19.278 423.229 19.278H421.465V26.95H423.229ZM437.09 23.87C437.09 24.1127 437.076 24.3693 437.048 24.64H430.916C430.962 25.396 431.219 25.9887 431.686 26.418C432.162 26.838 432.736 27.048 433.408 27.048C433.958 27.048 434.416 26.922 434.78 26.67C435.153 26.4087 435.414 26.0633 435.564 25.634H436.936C436.73 26.3713 436.32 26.9733 435.704 27.44C435.088 27.8973 434.322 28.126 433.408 28.126C432.68 28.126 432.026 27.9627 431.448 27.636C430.878 27.3093 430.43 26.8473 430.104 26.25C429.777 25.6433 429.614 24.9433 429.614 24.15C429.614 23.3567 429.772 22.6613 430.09 22.064C430.407 21.4667 430.85 21.0093 431.42 20.692C431.998 20.3653 432.661 20.202 433.408 20.202C434.136 20.202 434.78 20.3607 435.34 20.678C435.9 20.9953 436.329 21.434 436.628 21.994C436.936 22.5447 437.09 23.17 437.09 23.87ZM435.774 23.604C435.774 23.1187 435.666 22.7033 435.452 22.358C435.237 22.0033 434.943 21.7373 434.57 21.56C434.206 21.3733 433.8 21.28 433.352 21.28C432.708 21.28 432.157 21.4853 431.7 21.896C431.252 22.3067 430.995 22.876 430.93 23.604H435.774ZM439.723 26.95H443.489V28H438.267V26.95L441.991 21.364H438.295V20.328H443.461V21.364L439.723 26.95Z" fill="#25262D"/>
<path fill-rule="evenodd" clip-rule="evenodd" d="M547.084 21.2511C547.419 20.9163 547.962 20.9163 548.297 21.2511L552.833 25.7878L557.37 21.2511C557.705 20.9163 558.248 20.9163 558.582 21.2511C558.917 21.5858 558.917 22.1285 558.582 22.4632L553.439 27.6061C553.105 27.9408 552.562 27.9408 552.227 27.6061L547.084 22.4632C546.75 22.1285 546.75 21.5858 547.084 21.2511Z" fill="#ABABAB"/>
<path opacity="0.2" d="M464.042 305.087V305.671C464.042 306.365 463.956 306.987 463.782 307.537C463.609 308.087 463.359 308.555 463.033 308.94C462.707 309.325 462.316 309.619 461.859 309.822C461.406 310.025 460.898 310.127 460.335 310.127C459.789 310.127 459.288 310.025 458.831 309.822C458.378 309.619 457.985 309.325 457.65 308.94C457.32 308.555 457.064 308.087 456.882 307.537C456.7 306.987 456.609 306.365 456.609 305.671V305.087C456.609 304.393 456.698 303.773 456.876 303.227C457.058 302.677 457.314 302.209 457.644 301.824C457.974 301.435 458.365 301.139 458.818 300.936C459.275 300.732 459.777 300.631 460.323 300.631C460.885 300.631 461.393 300.732 461.846 300.936C462.303 301.139 462.694 301.435 463.02 301.824C463.35 302.209 463.602 302.677 463.776 303.227C463.953 303.773 464.042 304.393 464.042 305.087ZM462.83 305.671V305.074C462.83 304.524 462.773 304.037 462.659 303.614C462.549 303.191 462.386 302.836 462.17 302.548C461.954 302.26 461.689 302.042 461.376 301.894C461.067 301.746 460.716 301.672 460.323 301.672C459.942 301.672 459.597 301.746 459.288 301.894C458.983 302.042 458.721 302.26 458.501 302.548C458.285 302.836 458.118 303.191 457.999 303.614C457.881 304.037 457.822 304.524 457.822 305.074V305.671C457.822 306.225 457.881 306.716 457.999 307.144C458.118 307.567 458.287 307.924 458.507 308.216C458.731 308.504 458.996 308.722 459.301 308.87C459.61 309.018 459.954 309.092 460.335 309.092C460.733 309.092 461.086 309.018 461.395 308.87C461.704 308.722 461.965 308.504 462.176 308.216C462.392 307.924 462.555 307.567 462.665 307.144C462.775 306.716 462.83 306.225 462.83 305.671ZM469.901 308.413V303.132H471.082V310H469.958L469.901 308.413ZM470.123 306.966L470.612 306.953C470.612 307.41 470.563 307.833 470.466 308.223C470.373 308.608 470.221 308.942 470.009 309.226C469.798 309.509 469.52 309.731 469.178 309.892C468.835 310.049 468.418 310.127 467.927 310.127C467.593 310.127 467.286 310.078 467.007 309.981C466.732 309.884 466.495 309.733 466.296 309.53C466.097 309.327 465.942 309.063 465.832 308.737C465.727 308.411 465.674 308.02 465.674 307.562V303.132H466.848V307.575C466.848 307.884 466.882 308.14 466.95 308.343C467.021 308.542 467.117 308.701 467.235 308.819C467.358 308.934 467.493 309.014 467.641 309.061C467.794 309.107 467.95 309.13 468.111 309.13C468.611 309.13 469.006 309.035 469.298 308.845C469.59 308.65 469.8 308.39 469.927 308.064C470.058 307.734 470.123 307.368 470.123 306.966ZM475.747 303.132V304.033H472.034V303.132H475.747ZM473.291 301.462H474.465V308.299C474.465 308.532 474.501 308.707 474.573 308.826C474.645 308.944 474.738 309.022 474.852 309.061C474.967 309.099 475.089 309.118 475.221 309.118C475.318 309.118 475.419 309.109 475.525 309.092C475.635 309.071 475.718 309.054 475.773 309.042L475.779 310C475.686 310.03 475.563 310.057 475.411 310.083C475.263 310.112 475.083 310.127 474.871 310.127C474.584 310.127 474.319 310.07 474.078 309.956C473.837 309.841 473.644 309.651 473.5 309.384C473.361 309.113 473.291 308.75 473.291 308.292V301.462Z" fill="#2F3A4A"/>
<path opacity="0.5" d="M13.2363 307.552V301.008H14.4551V307.552C14.4551 308.162 14.3302 308.676 14.0806 309.095C13.8309 309.514 13.486 309.833 13.0459 310.053C12.61 310.269 12.1086 310.377 11.5415 310.377C10.9744 310.377 10.4709 310.28 10.0308 310.085C9.59066 309.89 9.24577 309.594 8.99609 309.196C8.74642 308.799 8.62158 308.297 8.62158 307.692H9.84668C9.84668 308.081 9.91862 308.401 10.0625 308.65C10.2064 308.9 10.4053 309.084 10.6592 309.203C10.9173 309.321 11.2114 309.38 11.5415 309.38C11.8631 309.38 12.1509 309.313 12.4048 309.177C12.6629 309.038 12.866 308.832 13.0142 308.562C13.1623 308.286 13.2363 307.95 13.2363 307.552ZM20.4028 309.076V305.54C20.4028 305.269 20.3478 305.034 20.2378 304.835C20.132 304.632 19.9712 304.476 19.7554 304.366C19.5396 304.256 19.2729 304.201 18.9556 304.201C18.6593 304.201 18.3991 304.251 18.1748 304.353C17.9548 304.455 17.7812 304.588 17.6543 304.753C17.5316 304.918 17.4702 305.096 17.4702 305.286H16.2959C16.2959 305.041 16.3594 304.797 16.4863 304.556C16.6133 304.315 16.7952 304.097 17.0322 303.902C17.2734 303.703 17.5612 303.547 17.8955 303.433C18.234 303.314 18.6107 303.255 19.0254 303.255C19.5247 303.255 19.9648 303.34 20.3457 303.509C20.7308 303.678 21.0312 303.934 21.2471 304.277C21.4671 304.615 21.5771 305.041 21.5771 305.553V308.752C21.5771 308.98 21.5962 309.224 21.6343 309.482C21.6766 309.74 21.738 309.962 21.8184 310.148V310.25H20.5933C20.534 310.115 20.4875 309.935 20.4536 309.71C20.4198 309.482 20.4028 309.27 20.4028 309.076ZM20.606 306.086L20.6187 306.911H19.4316C19.0973 306.911 18.799 306.939 18.5366 306.994C18.2743 307.044 18.0542 307.123 17.8765 307.229C17.6987 307.334 17.5633 307.468 17.4702 307.628C17.3771 307.785 17.3306 307.969 17.3306 308.181C17.3306 308.396 17.3792 308.593 17.4766 308.771C17.5739 308.949 17.7199 309.09 17.9146 309.196C18.1134 309.298 18.3568 309.349 18.6445 309.349C19.0042 309.349 19.3216 309.272 19.5967 309.12C19.8717 308.968 20.0897 308.782 20.2505 308.562C20.4155 308.341 20.5044 308.128 20.5171 307.92L21.0186 308.485C20.9889 308.663 20.9085 308.86 20.7773 309.076C20.6462 309.292 20.4705 309.499 20.2505 309.698C20.0347 309.892 19.7765 310.055 19.4761 310.187C19.1799 310.313 18.8455 310.377 18.4731 310.377C18.0076 310.377 17.5993 310.286 17.248 310.104C16.901 309.922 16.6302 309.679 16.4355 309.374C16.2451 309.065 16.1499 308.72 16.1499 308.339C16.1499 307.971 16.2218 307.647 16.3657 307.368C16.5096 307.085 16.717 306.85 16.9878 306.664C17.2586 306.473 17.5845 306.329 17.9653 306.232C18.3462 306.135 18.7715 306.086 19.2412 306.086H20.606ZM24.5986 304.848V310.25H23.4243V303.382H24.5352L24.5986 304.848ZM24.3193 306.556L23.8306 306.537C23.8348 306.067 23.9046 305.633 24.04 305.235C24.1755 304.833 24.3659 304.484 24.6113 304.188C24.8568 303.892 25.1488 303.663 25.4873 303.502C25.8301 303.337 26.2088 303.255 26.6235 303.255C26.9621 303.255 27.2668 303.301 27.5376 303.395C27.8084 303.483 28.0391 303.627 28.2295 303.826C28.4242 304.025 28.5723 304.283 28.6738 304.601C28.7754 304.914 28.8262 305.297 28.8262 305.75V310.25H27.6455V305.737C27.6455 305.377 27.5926 305.089 27.4868 304.874C27.381 304.653 27.2266 304.495 27.0234 304.397C26.8203 304.296 26.5706 304.245 26.2744 304.245C25.9824 304.245 25.7158 304.306 25.4746 304.429C25.2376 304.552 25.0324 304.721 24.8589 304.937C24.6896 305.153 24.5563 305.4 24.459 305.68C24.3659 305.955 24.3193 306.247 24.3193 306.556Z" fill="#2F3A4A"/>
<rect x="12.667" y="179" width="15.8333" height="101.25" rx="7.91667" fill="#8CC63F"/>
<path opacity="0.5" d="M60.0158 301.008V310.25H58.7907V301.008H60.0158ZM63.8879 305.166V306.168H59.7492V305.166H63.8879ZM64.5163 301.008V302.011H59.7492V301.008H64.5163ZM68.509 310.377C68.0308 310.377 67.597 310.297 67.2077 310.136C66.8226 309.971 66.4904 309.74 66.2111 309.444C65.936 309.148 65.7244 308.796 65.5763 308.39C65.4282 307.984 65.3542 307.54 65.3542 307.057V306.791C65.3542 306.232 65.4367 305.735 65.6017 305.299C65.7668 304.859 65.991 304.486 66.2746 304.182C66.5581 303.877 66.8797 303.646 67.2394 303.49C67.5991 303.333 67.9715 303.255 68.3566 303.255C68.8475 303.255 69.2707 303.34 69.6261 303.509C69.9858 303.678 70.2799 303.915 70.5085 304.22C70.737 304.52 70.9062 304.876 71.0163 305.286C71.1263 305.692 71.1813 306.137 71.1813 306.619V307.146H66.0524V306.188H70.007V306.099C69.9901 305.794 69.9266 305.498 69.8166 305.21C69.7108 304.922 69.5415 304.685 69.3088 304.499C69.076 304.313 68.7586 304.22 68.3566 304.22C68.09 304.22 67.8446 304.277 67.6203 304.391C67.396 304.501 67.2034 304.666 67.0426 304.886C66.8818 305.106 66.757 305.375 66.6681 305.692C66.5793 306.01 66.5348 306.376 66.5348 306.791V307.057C66.5348 307.383 66.5793 307.69 66.6681 307.978C66.7612 308.261 66.8945 308.511 67.068 308.727C67.2458 308.942 67.4595 309.112 67.7091 309.234C67.9631 309.357 68.2508 309.418 68.5724 309.418C68.9871 309.418 69.3384 309.334 69.6261 309.165C69.9139 308.995 70.1657 308.769 70.3815 308.485L71.0924 309.05C70.9443 309.275 70.756 309.488 70.5275 309.691C70.299 309.895 70.0176 310.06 69.6833 310.187C69.3532 310.313 68.9618 310.377 68.509 310.377ZM74.5519 309.19L76.4308 303.382H77.6305L75.1613 310.25H74.3742L74.5519 309.19ZM72.984 303.382L74.9201 309.222L75.0534 310.25H74.2663L71.778 303.382H72.984Z" fill="#2F3A4A"/>
<rect x="59.0835" y="224" width="15.8333" height="56.25" rx="7.91667" fill="#8CC63F"/>
<path opacity="0.5" d="M108.214 300.883H109.401L112.429 308.417L115.45 300.883H116.643L112.886 310.125H111.959L108.214 300.883ZM107.826 300.883H108.874L109.045 306.52V310.125H107.826V300.883ZM115.977 300.883H117.024V310.125H115.806V306.52L115.977 300.883ZM123.048 308.951V305.415C123.048 305.144 122.993 304.909 122.883 304.71C122.777 304.507 122.617 304.351 122.401 304.241C122.185 304.131 121.918 304.076 121.601 304.076C121.305 304.076 121.044 304.126 120.82 304.228C120.6 304.33 120.427 304.463 120.3 304.628C120.177 304.793 120.116 304.971 120.116 305.161H118.941C118.941 304.916 119.005 304.672 119.132 304.431C119.259 304.19 119.441 303.972 119.678 303.777C119.919 303.578 120.207 303.422 120.541 303.308C120.879 303.189 121.256 303.13 121.671 303.13C122.17 303.13 122.61 303.215 122.991 303.384C123.376 303.553 123.677 303.809 123.892 304.152C124.112 304.49 124.222 304.916 124.222 305.428V308.627C124.222 308.855 124.242 309.099 124.28 309.357C124.322 309.615 124.383 309.837 124.464 310.023V310.125H123.239C123.179 309.99 123.133 309.81 123.099 309.585C123.065 309.357 123.048 309.145 123.048 308.951ZM123.251 305.961L123.264 306.786H122.077C121.743 306.786 121.444 306.814 121.182 306.869C120.92 306.919 120.7 306.998 120.522 307.104C120.344 307.209 120.209 307.343 120.116 307.503C120.022 307.66 119.976 307.844 119.976 308.056C119.976 308.271 120.025 308.468 120.122 308.646C120.219 308.824 120.365 308.965 120.56 309.071C120.759 309.173 121.002 309.224 121.29 309.224C121.65 309.224 121.967 309.147 122.242 308.995C122.517 308.843 122.735 308.657 122.896 308.437C123.061 308.216 123.15 308.003 123.162 307.795L123.664 308.36C123.634 308.538 123.554 308.735 123.423 308.951C123.292 309.167 123.116 309.374 122.896 309.573C122.68 309.767 122.422 309.93 122.121 310.062C121.825 310.188 121.491 310.252 121.118 310.252C120.653 310.252 120.245 310.161 119.893 309.979C119.546 309.797 119.276 309.554 119.081 309.249C118.89 308.94 118.795 308.595 118.795 308.214C118.795 307.846 118.867 307.522 119.011 307.243C119.155 306.96 119.362 306.725 119.633 306.539C119.904 306.348 120.23 306.204 120.611 306.107C120.992 306.01 121.417 305.961 121.887 305.961H123.251ZM127.244 304.336V310.125H126.07V303.257H127.212L127.244 304.336ZM129.389 303.219L129.383 304.311C129.286 304.289 129.193 304.277 129.104 304.272C129.019 304.264 128.922 304.26 128.812 304.26C128.541 304.26 128.302 304.302 128.095 304.387C127.887 304.471 127.712 304.59 127.568 304.742C127.424 304.895 127.31 305.076 127.225 305.288C127.145 305.495 127.092 305.724 127.066 305.974L126.736 306.164C126.736 305.749 126.776 305.36 126.857 304.996C126.941 304.632 127.07 304.311 127.244 304.031C127.417 303.748 127.638 303.528 127.904 303.371C128.175 303.21 128.497 303.13 128.869 303.13C128.954 303.13 129.051 303.14 129.161 303.162C129.271 303.179 129.347 303.198 129.389 303.219Z" fill="#2F3A4A"/>
<rect x="110.25" y="243" width="15.8333" height="37.125" rx="7.91667" fill="#8CC63F"/>
<path opacity="0.5" d="M162.151 301.702L159.092 310.125H157.841L161.364 300.883H162.17L162.151 301.702ZM164.716 310.125L161.65 301.702L161.631 300.883H162.437L165.973 310.125H164.716ZM164.557 306.704V307.707H159.365V306.704H164.557ZM167.026 300.375H168.207V308.792L168.105 310.125H167.026V300.375ZM172.847 306.634V306.767C172.847 307.266 172.788 307.73 172.669 308.157C172.551 308.58 172.377 308.949 172.149 309.262C171.92 309.575 171.641 309.818 171.311 309.992C170.981 310.165 170.602 310.252 170.175 310.252C169.739 310.252 169.356 310.178 169.026 310.03C168.7 309.877 168.425 309.66 168.201 309.376C167.976 309.092 167.797 308.75 167.661 308.348C167.53 307.946 167.439 307.493 167.388 306.989V306.405C167.439 305.897 167.53 305.443 167.661 305.041C167.797 304.639 167.976 304.296 168.201 304.012C168.425 303.724 168.7 303.507 169.026 303.358C169.352 303.206 169.73 303.13 170.162 303.13C170.594 303.13 170.977 303.215 171.311 303.384C171.645 303.549 171.925 303.786 172.149 304.095C172.377 304.404 172.551 304.774 172.669 305.206C172.788 305.633 172.847 306.109 172.847 306.634ZM171.667 306.767V306.634C171.667 306.291 171.635 305.969 171.571 305.669C171.508 305.364 171.406 305.098 171.267 304.869C171.127 304.636 170.943 304.454 170.714 304.323C170.486 304.188 170.204 304.12 169.87 304.12C169.574 304.12 169.316 304.171 169.096 304.272C168.88 304.374 168.696 304.512 168.543 304.685C168.391 304.854 168.266 305.049 168.169 305.269C168.076 305.485 168.006 305.709 167.959 305.942V307.472C168.027 307.768 168.137 308.054 168.29 308.329C168.446 308.599 168.653 308.822 168.912 308.995C169.174 309.169 169.498 309.255 169.883 309.255C170.2 309.255 170.471 309.192 170.695 309.065C170.924 308.934 171.108 308.754 171.248 308.525C171.391 308.297 171.497 308.032 171.565 307.732C171.633 307.431 171.667 307.11 171.667 306.767ZM175.507 304.336V310.125H174.333V303.257H175.475L175.507 304.336ZM177.652 303.219L177.646 304.311C177.549 304.289 177.456 304.277 177.367 304.272C177.282 304.264 177.185 304.26 177.075 304.26C176.804 304.26 176.565 304.302 176.357 304.387C176.15 304.471 175.974 304.59 175.831 304.742C175.687 304.895 175.572 305.076 175.488 305.288C175.407 305.495 175.354 305.724 175.329 305.974L174.999 306.164C174.999 305.749 175.039 305.36 175.12 304.996C175.204 304.632 175.333 304.311 175.507 304.031C175.68 303.748 175.9 303.528 176.167 303.371C176.438 303.21 176.759 303.13 177.132 303.13C177.216 303.13 177.314 303.14 177.424 303.162C177.534 303.179 177.61 303.198 177.652 303.219Z" fill="#2F3A4A"/>
<rect x="159.833" y="189" width="15.8333" height="91.125" rx="7.91667" fill="#8CC63F"/>
<path opacity="0.5" d="M204.295 300.508H205.482L208.51 308.042L211.532 300.508H212.725L208.967 309.75H208.04L204.295 300.508ZM203.908 300.508H204.955L205.127 306.145V309.75H203.908V300.508ZM212.058 300.508H213.106V309.75H211.887V306.145L212.058 300.508ZM219.13 308.576V305.04C219.13 304.769 219.075 304.534 218.965 304.335C218.859 304.132 218.698 303.976 218.482 303.866C218.266 303.756 218 303.701 217.682 303.701C217.386 303.701 217.126 303.751 216.902 303.853C216.682 303.955 216.508 304.088 216.381 304.253C216.258 304.418 216.197 304.596 216.197 304.786H215.023C215.023 304.541 215.086 304.297 215.213 304.056C215.34 303.815 215.522 303.597 215.759 303.402C216 303.203 216.288 303.047 216.622 302.933C216.961 302.814 217.338 302.755 217.752 302.755C218.252 302.755 218.692 302.84 219.073 303.009C219.458 303.178 219.758 303.434 219.974 303.777C220.194 304.115 220.304 304.541 220.304 305.053V308.252C220.304 308.48 220.323 308.724 220.361 308.982C220.403 309.24 220.465 309.462 220.545 309.648V309.75H219.32C219.261 309.615 219.214 309.435 219.181 309.21C219.147 308.982 219.13 308.77 219.13 308.576ZM219.333 305.586L219.346 306.411H218.159C217.824 306.411 217.526 306.439 217.264 306.494C217.001 306.544 216.781 306.623 216.603 306.729C216.426 306.834 216.29 306.968 216.197 307.128C216.104 307.285 216.057 307.469 216.057 307.681C216.057 307.896 216.106 308.093 216.203 308.271C216.301 308.449 216.447 308.59 216.641 308.696C216.84 308.798 217.084 308.849 217.371 308.849C217.731 308.849 218.049 308.772 218.324 308.62C218.599 308.468 218.817 308.282 218.977 308.062C219.142 307.841 219.231 307.628 219.244 307.42L219.745 307.985C219.716 308.163 219.635 308.36 219.504 308.576C219.373 308.792 219.197 308.999 218.977 309.198C218.762 309.392 218.503 309.555 218.203 309.687C217.907 309.813 217.572 309.877 217.2 309.877C216.735 309.877 216.326 309.786 215.975 309.604C215.628 309.422 215.357 309.179 215.162 308.874C214.972 308.565 214.877 308.22 214.877 307.839C214.877 307.471 214.949 307.147 215.093 306.868C215.236 306.585 215.444 306.35 215.715 306.164C215.986 305.973 216.311 305.829 216.692 305.732C217.073 305.635 217.498 305.586 217.968 305.586H219.333ZM223.427 302.882V309.75H222.246V302.882H223.427ZM222.158 301.06C222.158 300.87 222.215 300.709 222.329 300.578C222.447 300.446 222.621 300.381 222.849 300.381C223.074 300.381 223.245 300.446 223.364 300.578C223.486 300.709 223.548 300.87 223.548 301.06C223.548 301.242 223.486 301.399 223.364 301.53C223.245 301.657 223.074 301.72 222.849 301.72C222.621 301.72 222.447 301.657 222.329 301.53C222.215 301.399 222.158 301.242 222.158 301.06ZM225.001 306.392V306.246C225.001 305.751 225.073 305.292 225.217 304.869C225.361 304.441 225.568 304.071 225.839 303.758C226.11 303.44 226.438 303.195 226.823 303.021C227.208 302.844 227.64 302.755 228.118 302.755C228.6 302.755 229.034 302.844 229.419 303.021C229.809 303.195 230.139 303.44 230.41 303.758C230.685 304.071 230.894 304.441 231.038 304.869C231.182 305.292 231.254 305.751 231.254 306.246V306.392C231.254 306.887 231.182 307.346 231.038 307.77C230.894 308.193 230.685 308.563 230.41 308.88C230.139 309.194 229.811 309.439 229.426 309.617C229.045 309.79 228.613 309.877 228.131 309.877C227.648 309.877 227.215 309.79 226.829 309.617C226.444 309.439 226.114 309.194 225.839 308.88C225.568 308.563 225.361 308.193 225.217 307.77C225.073 307.346 225.001 306.887 225.001 306.392ZM226.176 306.246V306.392C226.176 306.735 226.216 307.059 226.296 307.363C226.377 307.664 226.497 307.93 226.658 308.163C226.823 308.396 227.028 308.58 227.274 308.715C227.519 308.847 227.805 308.912 228.131 308.912C228.452 308.912 228.734 308.847 228.975 308.715C229.22 308.58 229.424 308.396 229.584 308.163C229.745 307.93 229.866 307.664 229.946 307.363C230.031 307.059 230.073 306.735 230.073 306.392V306.246C230.073 305.908 230.031 305.588 229.946 305.288C229.866 304.983 229.743 304.714 229.578 304.481C229.417 304.244 229.214 304.058 228.969 303.923C228.727 303.787 228.444 303.72 228.118 303.72C227.796 303.72 227.513 303.787 227.267 303.923C227.026 304.058 226.823 304.244 226.658 304.481C226.497 304.714 226.377 304.983 226.296 305.288C226.216 305.588 226.176 305.908 226.176 306.246Z" fill="#2F3A4A"/>
<rect x="209" y="90" width="16" height="190" rx="8" fill="#8CC63F"/>
<path opacity="0.5" d="M264.269 307.677V301.133H265.487V307.677C265.487 308.287 265.363 308.801 265.113 309.22C264.863 309.639 264.518 309.958 264.078 310.178C263.642 310.394 263.141 310.502 262.574 310.502C262.007 310.502 261.503 310.405 261.063 310.21C260.623 310.015 260.278 309.719 260.028 309.321C259.779 308.924 259.654 308.422 259.654 307.817H260.879C260.879 308.206 260.951 308.526 261.095 308.775C261.239 309.025 261.438 309.209 261.692 309.328C261.95 309.446 262.244 309.505 262.574 309.505C262.896 309.505 263.183 309.438 263.437 309.302C263.695 309.163 263.898 308.957 264.047 308.687C264.195 308.411 264.269 308.075 264.269 307.677ZM271.588 308.788V303.507H272.768V310.375H271.645L271.588 308.788ZM271.81 307.341L272.299 307.328C272.299 307.785 272.25 308.208 272.153 308.598C272.059 308.983 271.907 309.317 271.695 309.601C271.484 309.884 271.207 310.106 270.864 310.267C270.521 310.424 270.104 310.502 269.613 310.502C269.279 310.502 268.972 310.453 268.693 310.356C268.418 310.259 268.181 310.108 267.982 309.905C267.783 309.702 267.629 309.438 267.519 309.112C267.413 308.786 267.36 308.395 267.36 307.938V303.507H268.534V307.95C268.534 308.259 268.568 308.515 268.636 308.718C268.708 308.917 268.803 309.076 268.922 309.194C269.044 309.309 269.18 309.389 269.328 309.436C269.48 309.482 269.637 309.505 269.798 309.505C270.297 309.505 270.693 309.41 270.985 309.22C271.277 309.025 271.486 308.765 271.613 308.439C271.744 308.109 271.81 307.743 271.81 307.341ZM275.733 304.973V310.375H274.558V303.507H275.669L275.733 304.973ZM275.453 306.681L274.965 306.662C274.969 306.192 275.039 305.758 275.174 305.36C275.309 304.958 275.5 304.609 275.745 304.313C275.991 304.017 276.283 303.788 276.621 303.627C276.964 303.462 277.343 303.38 277.757 303.38C278.096 303.38 278.401 303.426 278.672 303.52C278.942 303.608 279.173 303.752 279.363 303.951C279.558 304.15 279.706 304.408 279.808 304.726C279.909 305.039 279.96 305.422 279.96 305.875V310.375H278.779V305.862C278.779 305.502 278.727 305.214 278.621 304.999C278.515 304.778 278.361 304.62 278.157 304.522C277.954 304.421 277.705 304.37 277.408 304.37C277.116 304.37 276.85 304.431 276.609 304.554C276.372 304.677 276.166 304.846 275.993 305.062C275.824 305.278 275.69 305.525 275.593 305.805C275.5 306.08 275.453 306.372 275.453 306.681Z" fill="#2F3A4A"/>
<rect x="262.167" y="196" width="15.8333" height="84.375" rx="7.91667" fill="#8CC63F"/>
<path opacity="0.5" d="M320.614 307.427V300.883H321.833V307.427C321.833 308.037 321.708 308.551 321.459 308.97C321.209 309.389 320.864 309.708 320.424 309.928C319.988 310.144 319.487 310.252 318.92 310.252C318.353 310.252 317.849 310.155 317.409 309.96C316.969 309.765 316.624 309.469 316.374 309.071C316.125 308.674 316 308.172 316 307.567H317.225C317.225 307.956 317.297 308.276 317.441 308.525C317.584 308.775 317.783 308.959 318.037 309.078C318.295 309.196 318.59 309.255 318.92 309.255C319.241 309.255 319.529 309.188 319.783 309.052C320.041 308.913 320.244 308.707 320.392 308.437C320.54 308.161 320.614 307.825 320.614 307.427ZM327.933 308.538V303.257H329.114V310.125H327.99L327.933 308.538ZM328.155 307.091L328.644 307.078C328.644 307.535 328.596 307.958 328.498 308.348C328.405 308.733 328.253 309.067 328.041 309.351C327.83 309.634 327.552 309.856 327.21 310.017C326.867 310.174 326.45 310.252 325.959 310.252C325.625 310.252 325.318 310.203 325.039 310.106C324.764 310.009 324.527 309.858 324.328 309.655C324.129 309.452 323.974 309.188 323.864 308.862C323.759 308.536 323.706 308.145 323.706 307.688V303.257H324.88V307.7C324.88 308.009 324.914 308.265 324.982 308.468C325.054 308.667 325.149 308.826 325.267 308.944C325.39 309.059 325.525 309.139 325.674 309.186C325.826 309.232 325.982 309.255 326.143 309.255C326.643 309.255 327.038 309.16 327.33 308.97C327.622 308.775 327.832 308.515 327.959 308.189C328.09 307.859 328.155 307.493 328.155 307.091ZM332.18 300.375V310.125H330.999V300.375H332.18Z" fill="#2F3A4A"/>
<rect x="316.5" y="252" width="15.8333" height="28.125" rx="7.91667" fill="#8CC63F"/>
<path opacity="0.5" d="M366.897 301.952L363.838 310.375H362.587L366.11 301.133H366.916L366.897 301.952ZM369.462 310.375L366.396 301.952L366.377 301.133H367.183L370.718 310.375H369.462ZM369.303 306.954V307.957H364.111V306.954H369.303ZM376.228 303.507H377.295V310.229C377.295 310.834 377.172 311.35 376.926 311.778C376.681 312.205 376.338 312.529 375.898 312.749C375.462 312.973 374.959 313.085 374.387 313.085C374.15 313.085 373.871 313.047 373.549 312.971C373.232 312.899 372.919 312.774 372.61 312.597C372.305 312.423 372.049 312.188 371.842 311.892L372.458 311.194C372.745 311.541 373.046 311.782 373.359 311.917C373.676 312.053 373.99 312.121 374.299 312.121C374.671 312.121 374.993 312.051 375.263 311.911C375.534 311.771 375.744 311.564 375.892 311.289C376.044 311.018 376.12 310.684 376.12 310.286V305.018L376.228 303.507ZM371.499 307.017V306.884C371.499 306.359 371.561 305.883 371.683 305.456C371.81 305.024 371.99 304.654 372.223 304.345C372.46 304.036 372.745 303.799 373.08 303.634C373.414 303.465 373.791 303.38 374.21 303.38C374.641 303.38 375.018 303.456 375.34 303.608C375.665 303.757 375.94 303.974 376.165 304.262C376.393 304.546 376.573 304.889 376.704 305.291C376.835 305.693 376.926 306.147 376.977 306.655V307.239C376.931 307.743 376.84 308.196 376.704 308.598C376.573 309 376.393 309.342 376.165 309.626C375.94 309.91 375.665 310.127 375.34 310.28C375.014 310.428 374.633 310.502 374.197 310.502C373.786 310.502 373.414 310.415 373.08 310.242C372.75 310.068 372.466 309.825 372.229 309.512C371.992 309.199 371.81 308.83 371.683 308.407C371.561 307.98 371.499 307.516 371.499 307.017ZM372.674 306.884V307.017C372.674 307.36 372.707 307.681 372.775 307.982C372.847 308.282 372.955 308.547 373.099 308.775C373.247 309.004 373.435 309.184 373.664 309.315C373.892 309.442 374.165 309.505 374.483 309.505C374.872 309.505 375.194 309.423 375.447 309.258C375.701 309.093 375.902 308.875 376.05 308.604C376.203 308.333 376.321 308.039 376.406 307.722V306.192C376.359 305.959 376.287 305.735 376.19 305.519C376.097 305.299 375.974 305.104 375.822 304.935C375.674 304.762 375.49 304.624 375.27 304.522C375.05 304.421 374.792 304.37 374.495 304.37C374.174 304.37 373.896 304.438 373.664 304.573C373.435 304.704 373.247 304.886 373.099 305.119C372.955 305.348 372.847 305.614 372.775 305.919C372.707 306.219 372.674 306.541 372.674 306.884ZM378.767 307.017V306.871C378.767 306.376 378.839 305.917 378.983 305.494C379.127 305.066 379.334 304.696 379.605 304.383C379.876 304.065 380.204 303.82 380.589 303.646C380.974 303.469 381.406 303.38 381.884 303.38C382.366 303.38 382.8 303.469 383.185 303.646C383.575 303.82 383.905 304.065 384.175 304.383C384.451 304.696 384.66 305.066 384.804 305.494C384.948 305.917 385.02 306.376 385.02 306.871V307.017C385.02 307.512 384.948 307.971 384.804 308.395C384.66 308.818 384.451 309.188 384.175 309.505C383.905 309.819 383.577 310.064 383.192 310.242C382.811 310.415 382.379 310.502 381.897 310.502C381.414 310.502 380.98 310.415 380.595 310.242C380.21 310.064 379.88 309.819 379.605 309.505C379.334 309.188 379.127 308.818 378.983 308.395C378.839 307.971 378.767 307.512 378.767 307.017ZM379.942 306.871V307.017C379.942 307.36 379.982 307.684 380.062 307.988C380.143 308.289 380.263 308.555 380.424 308.788C380.589 309.021 380.794 309.205 381.04 309.34C381.285 309.472 381.571 309.537 381.897 309.537C382.218 309.537 382.5 309.472 382.741 309.34C382.986 309.205 383.189 309.021 383.35 308.788C383.511 308.555 383.632 308.289 383.712 307.988C383.797 307.684 383.839 307.36 383.839 307.017V306.871C383.839 306.533 383.797 306.213 383.712 305.913C383.632 305.608 383.509 305.339 383.344 305.106C383.183 304.869 382.98 304.683 382.735 304.548C382.493 304.412 382.21 304.345 381.884 304.345C381.562 304.345 381.279 304.412 381.033 304.548C380.792 304.683 380.589 304.869 380.424 305.106C380.263 305.339 380.143 305.608 380.062 305.913C379.982 306.213 379.942 306.533 379.942 306.871Z" fill="#2F3A4A"/>
<rect x="366.083" y="241" width="15.8333" height="39.375" rx="7.91667" fill="#8CC63F"/>
<path d="M416.191 307.289C416.191 307.073 416.157 306.883 416.09 306.718C416.026 306.549 415.912 306.396 415.747 306.261C415.586 306.125 415.362 305.996 415.074 305.874C414.791 305.751 414.431 305.626 413.995 305.499C413.538 305.364 413.125 305.213 412.757 305.048C412.389 304.879 412.074 304.687 411.811 304.471C411.549 304.255 411.348 304.007 411.208 303.728C411.069 303.449 410.999 303.129 410.999 302.77C410.999 302.41 411.073 302.078 411.221 301.773C411.369 301.468 411.581 301.204 411.856 300.979C412.135 300.751 412.467 300.573 412.852 300.446C413.237 300.319 413.667 300.256 414.141 300.256C414.835 300.256 415.423 300.389 415.906 300.656C416.392 300.918 416.763 301.263 417.016 301.69C417.27 302.114 417.397 302.566 417.397 303.049H416.179C416.179 302.702 416.104 302.395 415.956 302.128C415.808 301.858 415.584 301.646 415.284 301.494C414.983 301.337 414.602 301.259 414.141 301.259C413.705 301.259 413.345 301.324 413.062 301.456C412.778 301.587 412.567 301.764 412.427 301.989C412.292 302.213 412.224 302.469 412.224 302.757C412.224 302.951 412.264 303.129 412.345 303.29C412.429 303.447 412.558 303.593 412.732 303.728C412.91 303.863 413.134 303.988 413.405 304.103C413.68 304.217 414.008 304.327 414.389 304.433C414.913 304.581 415.366 304.746 415.747 304.928C416.128 305.11 416.441 305.315 416.686 305.543C416.936 305.768 417.12 306.024 417.239 306.312C417.361 306.595 417.423 306.917 417.423 307.276C417.423 307.653 417.347 307.994 417.194 308.298C417.042 308.603 416.824 308.863 416.54 309.079C416.257 309.295 415.916 309.462 415.518 309.581C415.125 309.695 414.685 309.752 414.198 309.752C413.771 309.752 413.35 309.693 412.935 309.574C412.524 309.456 412.15 309.278 411.811 309.041C411.477 308.804 411.208 308.512 411.005 308.165C410.806 307.814 410.707 307.408 410.707 306.946H411.926C411.926 307.264 411.987 307.537 412.11 307.765C412.232 307.989 412.4 308.176 412.611 308.324C412.827 308.472 413.07 308.582 413.341 308.654C413.616 308.722 413.902 308.755 414.198 308.755C414.625 308.755 414.987 308.696 415.284 308.578C415.58 308.459 415.804 308.29 415.956 308.07C416.113 307.85 416.191 307.59 416.191 307.289ZM421.657 309.752C421.178 309.752 420.745 309.672 420.355 309.511C419.97 309.346 419.638 309.115 419.359 308.819C419.084 308.523 418.872 308.171 418.724 307.765C418.576 307.359 418.502 306.915 418.502 306.432V306.166C418.502 305.607 418.584 305.11 418.749 304.674C418.914 304.234 419.139 303.861 419.422 303.557C419.706 303.252 420.027 303.021 420.387 302.865C420.747 302.708 421.119 302.63 421.504 302.63C421.995 302.63 422.418 302.715 422.774 302.884C423.133 303.053 423.428 303.29 423.656 303.595C423.885 303.895 424.054 304.251 424.164 304.661C424.274 305.067 424.329 305.512 424.329 305.994V306.521H419.2V305.562H423.155V305.474C423.138 305.169 423.074 304.873 422.964 304.585C422.858 304.297 422.689 304.06 422.456 303.874C422.224 303.688 421.906 303.595 421.504 303.595C421.238 303.595 420.992 303.652 420.768 303.766C420.544 303.876 420.351 304.041 420.19 304.261C420.029 304.481 419.905 304.75 419.816 305.067C419.727 305.385 419.682 305.751 419.682 306.166V306.432C419.682 306.758 419.727 307.065 419.816 307.353C419.909 307.636 420.042 307.886 420.216 308.102C420.393 308.317 420.607 308.487 420.857 308.609C421.111 308.732 421.398 308.793 421.72 308.793C422.135 308.793 422.486 308.709 422.774 308.54C423.062 308.37 423.313 308.144 423.529 307.86L424.24 308.425C424.092 308.65 423.904 308.863 423.675 309.066C423.447 309.27 423.165 309.435 422.831 309.562C422.501 309.688 422.109 309.752 421.657 309.752ZM428.576 302.757V303.658H424.862V302.757H428.576ZM426.119 301.087H427.293V307.924C427.293 308.157 427.329 308.332 427.401 308.451C427.473 308.569 427.566 308.647 427.681 308.686C427.795 308.724 427.917 308.743 428.049 308.743C428.146 308.743 428.248 308.734 428.353 308.717C428.463 308.696 428.546 308.679 428.601 308.667L428.607 309.625C428.514 309.655 428.391 309.682 428.239 309.708C428.091 309.737 427.911 309.752 427.7 309.752C427.412 309.752 427.147 309.695 426.906 309.581C426.665 309.466 426.472 309.276 426.328 309.009C426.189 308.738 426.119 308.375 426.119 307.917V301.087Z" fill="#2F3A4A"/>
<rect x="410.917" y="265" width="15.8333" height="14.625" rx="7.3125" fill="#8CC63F"/>
<path opacity="0.2" d="M509.987 300.758V310H508.756L504.103 302.872V310H502.878V300.758H504.103L508.775 307.905V300.758H509.987ZM511.669 306.642V306.496C511.669 306.001 511.741 305.542 511.885 305.119C512.029 304.691 512.236 304.321 512.507 304.008C512.778 303.69 513.106 303.445 513.491 303.271C513.876 303.094 514.308 303.005 514.786 303.005C515.269 303.005 515.702 303.094 516.087 303.271C516.477 303.445 516.807 303.69 517.078 304.008C517.353 304.321 517.562 304.691 517.706 305.119C517.85 305.542 517.922 306.001 517.922 306.496V306.642C517.922 307.137 517.85 307.596 517.706 308.02C517.562 308.443 517.353 308.813 517.078 309.13C516.807 309.444 516.479 309.689 516.094 309.867C515.713 310.04 515.281 310.127 514.799 310.127C514.316 310.127 513.883 310.04 513.498 309.867C513.112 309.689 512.782 309.444 512.507 309.13C512.236 308.813 512.029 308.443 511.885 308.02C511.741 307.596 511.669 307.137 511.669 306.642ZM512.844 306.496V306.642C512.844 306.985 512.884 307.309 512.964 307.613C513.045 307.914 513.165 308.18 513.326 308.413C513.491 308.646 513.696 308.83 513.942 308.965C514.187 309.097 514.473 309.162 514.799 309.162C515.12 309.162 515.402 309.097 515.643 308.965C515.889 308.83 516.092 308.646 516.252 308.413C516.413 308.18 516.534 307.914 516.614 307.613C516.699 307.309 516.741 306.985 516.741 306.642V306.496C516.741 306.158 516.699 305.838 516.614 305.538C516.534 305.233 516.411 304.964 516.246 304.731C516.085 304.494 515.882 304.308 515.637 304.173C515.396 304.037 515.112 303.97 514.786 303.97C514.465 303.97 514.181 304.037 513.936 304.173C513.694 304.308 513.491 304.494 513.326 304.731C513.165 304.964 513.045 305.233 512.964 305.538C512.884 305.838 512.844 306.158 512.844 306.496ZM521.381 308.94L523.26 303.132H524.46L521.991 310H521.204L521.381 308.94ZM519.813 303.132L521.75 308.972L521.883 310H521.096L518.607 303.132H519.813Z" fill="#2F3A4A"/>
<path opacity="0.2" d="M553.887 310H551.957L551.97 309.003H553.887C554.547 309.003 555.097 308.866 555.537 308.591C555.977 308.312 556.307 307.922 556.527 307.423C556.752 306.919 556.864 306.331 556.864 305.658V305.093C556.864 304.564 556.8 304.095 556.673 303.684C556.546 303.269 556.36 302.92 556.115 302.637C555.869 302.349 555.569 302.131 555.213 301.983C554.862 301.835 554.458 301.761 554.001 301.761H551.919V300.758H554.001C554.606 300.758 555.158 300.859 555.658 301.062C556.157 301.261 556.587 301.551 556.946 301.932C557.31 302.309 557.59 302.766 557.784 303.303C557.979 303.836 558.076 304.437 558.076 305.106V305.658C558.076 306.327 557.979 306.93 557.784 307.467C557.59 308 557.308 308.455 556.94 308.832C556.576 309.209 556.136 309.499 555.62 309.702C555.108 309.901 554.53 310 553.887 310ZM552.611 300.758V310H551.386V300.758H552.611ZM562.589 310.127C562.111 310.127 561.677 310.047 561.288 309.886C560.903 309.721 560.571 309.49 560.292 309.194C560.016 308.898 559.805 308.546 559.657 308.14C559.509 307.734 559.435 307.29 559.435 306.807V306.541C559.435 305.982 559.517 305.485 559.682 305.049C559.847 304.609 560.071 304.236 560.355 303.932C560.639 303.627 560.96 303.396 561.32 303.24C561.68 303.083 562.052 303.005 562.437 303.005C562.928 303.005 563.351 303.09 563.707 303.259C564.066 303.428 564.36 303.665 564.589 303.97C564.817 304.27 564.987 304.626 565.097 305.036C565.207 305.442 565.262 305.887 565.262 306.369V306.896H560.133V305.938H564.087V305.849C564.07 305.544 564.007 305.248 563.897 304.96C563.791 304.672 563.622 304.435 563.389 304.249C563.156 304.063 562.839 303.97 562.437 303.97C562.17 303.97 561.925 304.027 561.701 304.141C561.476 304.251 561.284 304.416 561.123 304.636C560.962 304.856 560.837 305.125 560.749 305.442C560.66 305.76 560.615 306.126 560.615 306.541V306.807C560.615 307.133 560.66 307.44 560.749 307.728C560.842 308.011 560.975 308.261 561.148 308.477C561.326 308.692 561.54 308.862 561.79 308.984C562.043 309.107 562.331 309.168 562.653 309.168C563.068 309.168 563.419 309.084 563.707 308.915C563.994 308.745 564.246 308.519 564.462 308.235L565.173 308.8C565.025 309.025 564.836 309.238 564.608 309.441C564.379 309.645 564.098 309.81 563.764 309.937C563.434 310.063 563.042 310.127 562.589 310.127ZM571.749 309.035V310H566.753V309.035H571.749ZM571.565 303.963L567.02 310H566.303V309.137L570.816 303.132H571.565V303.963ZM571.044 303.132V304.103H566.354V303.132H571.044Z" fill="#2F3A4A"/>
</svg>
